<?xml version="1.0" encoding="UTF-8"?>
<svg id="_图层_2" data-name="图层 2" xmlns="http://www.w3.org/2000/svg" viewBox="0 0 240 18.69">
  <g id="_图层_1-2" data-name="图层 1">
    <g>
      <path d="M141.36,0c2.36,.02,4.45,.69,6.12,1.84l-1.32,1.97c-1.46-.95-2.99-1.43-4.55-1.43-.69,0-1.37,.1-2.05,.29-.65,.18-1.32,.77-1.32,1.44,0,1.32,1.77,1.62,4.01,2,.19,.03,.38,.06,.57,.1,4.2,.73,5.53,2.86,5.37,4.62-.23,2.58-2.77,4.18-6.64,4.18h.02c-2.57,0-4.74-.81-6.82-2.53l1.43-2.15c1.38,1.11,2.94,1.83,4.51,2.07,.42,.07,.88,.1,1.33,.1,2.17,0,3.47-.76,3.47-2.03,0-1.36-1.5-1.59-3.09-1.83-.52-.08-1.06-.16-1.58-.28-3.24-.71-5.5-1.42-5.5-4.2,0-2.57,2.91-4.14,6.04-4.16Zm44.71,0c4.13,0,7.47,3.36,7.47,7.5s-3.34,7.49-7.47,7.5c-4.13,0-7.47-3.36-7.47-7.5,0-4.14,3.34-7.5,7.47-7.5Zm31.65,0c4.13,0,7.47,3.36,7.47,7.5s-3.34,7.5-7.47,7.5c-4.13,0-7.47-3.36-7.47-7.5C210.25,3.36,213.59,0,217.72,0Zm-84.54,14.5h-2.88l-1.23-2.91h-3.48l-1.06-2.45h3.5l-2.16-5.09h-.13l-4.46,10.44h-3.28L124.35,.49h2.95l5.88,14.01Zm29.3-11.55h-4.99V14.5h-2.74V2.95h-5V.49h12.73V2.95Zm9.16-2.46c1.47,0,2.7,.41,3.66,1.22,.95,.8,1.43,1.88,1.43,3.22,0,1.34-.52,2.6-1.43,3.39-.47,.41-1.01,.72-1.62,.93l-.59,.12,4.63,5.14h-3.3l-5.59-6.05v-.99h2.48c.75,0,1.38-.22,1.88-.64,.51-.44,.77-1.02,.77-1.72,0-.65-.24-1.16-.72-1.6-.47-.43-1.08-.57-1.81-.57h-6.93V.49h7.14Zm31.64,0c1.36,0,2.47,.33,3.29,.98,.63,.46,1.06,1.21,1.18,2.06,.12,.87,0,1.86-.48,2.47-.4,.51-.79,.96-1.47,1.17l-.17,.05v.05l.2,.04c.83,.17,1.45,.61,1.92,1.2,.51,.64,.65,1.58,.58,2.48-.08,.97-.54,1.85-1.24,2.41-.85,.73-2,1.1-3.41,1.1h-7.83s0-14,0-14h7.43Zm-36.06,14h-2.72V7.46h2.72v7.03Zm72.78,0h-3.46l-4.11-5.23-4.1,5.23h-3.39l5.63-7.16-5.39-6.83h3.62l11.2,13.99ZM186.07,2.69c-2.65,0-4.79,2.15-4.79,4.81s2.15,4.81,4.79,4.81c2.65,0,4.79-2.15,4.79-4.81,0-2.66-2.14-4.81-4.79-4.81Zm31.65,0c-2.65,0-4.79,2.15-4.79,4.81s2.15,4.81,4.79,4.81c2.65,0,4.79-2.15,4.79-4.81s-2.14-4.81-4.79-4.81Zm-19.14,9.36h4.47c.73,0,1.29,0,1.83-.34,.54-.34,.76-.85,.76-1.46s-.25-1.11-.78-1.46c-.49-.32-1.12-.34-1.86-.34h-4.42v3.6Zm0-5.7h4.17c.88,0,1.4-.1,1.83-.45,.46-.38,.6-.83,.58-1.31-.02-.58-.3-.99-.71-1.3-.39-.29-.96-.35-1.66-.35h-4.21v3.41Zm36.82-.44l-1.68-2.1,2.65-3.32h3.38l-4.34,5.42Z"/>
      <g>
        <path d="M98.06,14.8c-.74,0-1.41-.15-2.02-.46-.6-.31-1.09-.71-1.44-1.2h-.86l.79-.81v2.13h-2.58V1.3l2.7-.82V5.68h.06c.36-.47,.84-.86,1.43-1.15,.6-.29,1.26-.43,1.97-.43,1.39,0,2.54,.48,3.44,1.45,.9,.97,1.36,2.25,1.36,3.86s-.46,2.88-1.37,3.89c-.91,1-2.07,1.51-3.49,1.51Zm-.62-2.28c.81,0,1.49-.28,2.03-.85,.54-.57,.81-1.32,.81-2.24s-.27-1.66-.8-2.22c-.54-.56-1.21-.83-2.02-.83s-1.49,.28-2.04,.83c-.55,.56-.83,1.3-.83,2.23s.27,1.67,.82,2.23c.55,.57,1.23,.85,2.04,.85Z"/>
        <path d="M105.51,18.69l2.73-5.48,.02,1.23-4.8-10h2.91l2.65,5.83,.29,.89h.07l.31-.9,2.56-5.82h2.82l-6.7,14.25h-2.86Z"/>
      </g>
      <g>
        <path d="M28.43,14.45l-3.37-10.01h2.74l1.78,5.96,.23,.84h.06l.24-.8,1.98-6h2.28l1.91,5.96,.25,.83h.07l.23-.81,1.81-5.98h2.58l-3.38,10.01h-2.43l-2.06-6.19-.2-.75h-.06l-.22,.75-2.03,6.19h-2.43Z"/>
        <path d="M47.49,14.8c-1.61,0-2.92-.5-3.91-1.51-.99-1-1.49-2.28-1.49-3.84s.5-2.82,1.5-3.84c1-1.02,2.28-1.53,3.85-1.53s2.73,.45,3.69,1.36c.96,.9,1.44,2.06,1.44,3.46v1.29h-9.15v-1.72h6.62c-.06-.66-.32-1.2-.77-1.61-.46-.42-1.07-.63-1.83-.63-.83,0-1.5,.28-2,.83-.5,.56-.75,1.32-.75,2.3s.28,1.84,.85,2.44c.57,.61,1.31,.91,2.23,.91,.43,0,.8-.06,1.12-.17,.32-.11,.6-.26,.87-.44s.57-.48,.92-.89l1.61,1.25c-.47,.62-.93,1.08-1.38,1.39-.45,.31-.94,.54-1.48,.7s-1.19,.24-1.95,.24Z"/>
        <path d="M54.6,14.45V4.44h2.59v1.9l-.21-.28h.28c.2-.57,.57-1.04,1.12-1.41,.54-.37,1.13-.56,1.76-.56,.2,0,.4,.02,.6,.06,.2,.04,.48,.12,.83,.23l-.07,2.54c-.44-.17-.78-.28-1.01-.32-.23-.05-.45-.07-.67-.07-.74,0-1.34,.26-1.81,.78-.47,.52-.71,1.2-.71,2.03v5.11h-2.7Z"/>
        <path d="M67.55,14.8c-1.61,0-2.92-.5-3.91-1.51-.99-1-1.49-2.28-1.49-3.84s.5-2.82,1.5-3.84c1-1.02,2.28-1.53,3.85-1.53s2.73,.45,3.69,1.36c.96,.9,1.44,2.06,1.44,3.46v1.29h-9.15v-1.72h6.62c-.06-.66-.32-1.2-.77-1.61-.46-.42-1.07-.63-1.83-.63-.83,0-1.5,.28-2,.83-.5,.56-.75,1.32-.75,2.3s.28,1.84,.85,2.44c.57,.61,1.31,.91,2.23,.91,.43,0,.8-.06,1.12-.17,.32-.11,.6-.26,.87-.44s.57-.48,.92-.89l1.61,1.25c-.47,.62-.93,1.08-1.38,1.39-.45,.31-.94,.54-1.48,.7s-1.19,.24-1.95,.24Z"/>
        <path d="M79.09,14.8c-1.4,0-2.56-.49-3.47-1.46-.91-.97-1.37-2.27-1.37-3.89s.47-2.87,1.4-3.86c.93-.99,2.12-1.48,3.55-1.48,.7,0,1.34,.14,1.93,.43,.59,.29,1.04,.67,1.35,1.14h.07V1.3l2.65-.82V14.45h-2.57v-1.73l.28,.42h-.36c-.32,.5-.79,.9-1.41,1.2-.62,.3-1.31,.45-2.05,.45Zm.64-2.27c.81,0,1.49-.28,2.04-.85,.55-.57,.82-1.31,.82-2.23s-.27-1.66-.82-2.21c-.55-.56-1.23-.84-2.04-.84s-1.48,.28-2.02,.83c-.54,.56-.81,1.3-.81,2.22s.27,1.67,.81,2.23c.54,.57,1.22,.85,2.03,.85Z"/>
        <path d="M10.78,1.81c-.95-.85-2.23-1.28-3.82-1.28H0V2.98H6.92c.77,0,1.38,.21,1.83,.62,.45,.42,.68,.99,.68,1.73s-.23,1.28-.69,1.69c-.46,.41-1.07,.61-1.85,.61H0v6.87H2.73v-4.51H6.93c1.57,0,2.85-.42,3.82-1.25,.98-.84,1.46-1.98,1.46-3.43s-.48-2.65-1.43-3.5Z"/>
        <path d="M18.86,4.1c-2.96,0-5.35,2.4-5.35,5.35s2.4,5.35,5.35,5.35,5.35-2.4,5.35-5.35-2.4-5.35-5.35-5.35Zm0,8.42c-1.7,0-3.07-1.38-3.07-3.07s1.38-3.07,3.07-3.07,3.07,1.38,3.07,3.07-1.38,3.07-3.07,3.07Z"/>
      </g>
    </g>
  </g>
</svg>