<svg xmlns="http://www.w3.org/2000/svg" xmlns:xlink="http://www.w3.org/1999/xlink" fill="none" version="1.1" width="99.43229675292969" height="12.000499725341797" viewBox="0 0 99.43229675292969 12.000499725341797"><path d="M19.938904,12.0005Q18.117302,12.0005,16.600899,11.491598Q15.084503,10.982498,13.823898,9.7847881L15.330399,8.4171486Q16.1399,9.2206688,17.534103,9.7195187Q18.5952,10.134998,19.873398,10.134998Q20.369202,10.134998,20.884102,10.0709Q21.399101,10.006699,21.836502,9.8354893Q22.274002,9.6642895,22.540398,9.3150387Q22.806801,9.0487995,22.806801,8.6439495Q22.806801,7.9855499,21.891403,7.6661186Q21.4142,7.4914894,20.7761,7.3309193Q20.1381,7.1700096,19.355003,7.0392895Q18.037399,6.7792187,17.029503,6.45397Q16.021797,6.1283684,15.360497,5.6058388Q14.889397,5.207159,14.629898,4.6527195Q14.3703,4.09828,14.3703,3.3633595Q14.3703,2.5872784,14.770103,1.9779491Q15.170197,1.3682594,15.891197,0.91606331Q16.612198,0.46352196,17.5746,0.23193169Q18.537003,0,19.638496,0Q20.595398,0,21.612,0.19727898Q22.628502,0.39421654,23.379097,0.71535873Q24.164001,1.1366482,24.838997,1.7546196L23.644096,3.2423096Q23.098,2.8086395,22.550003,2.5533199Q21.835899,2.2146797,21.082603,2.0277481Q20.329399,1.8404198,19.6577,1.8403988Q19.141098,1.8403988,18.628502,1.9045296Q18.115997,1.968689,17.678101,2.1289082Q17.2407,2.2891293,16.985603,2.6277695Q16.730797,2.8826885,16.730797,3.2645493Q16.730797,3.5201588,16.869301,3.7452297Q17.008202,3.9699593,17.266998,4.1411591Q17.699402,4.3991699,18.441299,4.6029682Q19.183601,4.8064194,20.126099,4.98209Q21.320198,5.2061291,22.325104,5.508049Q23.330299,5.8099785,24.028,6.2734985Q24.573196,6.6488495,24.864197,7.1538792Q25.155701,7.6589184,25.155701,8.3365288Q25.155701,9.4793797,24.449097,10.307299Q23.742401,11.135199,22.5774,11.567799Q21.412804,12.0005,19.938904,12.0005ZM62.790604,6.0002289C62.790604,9.3140583,60.106094,12.0005,56.794601,12.0005C53.4832,12.0005,50.798706,9.3140583,50.798706,6.0002289C50.798706,2.6863899,53.4832,0,56.794601,0C60.106094,0,62.790604,2.6863899,62.790604,6.0002289ZM87.273895,6.0002289C87.273895,9.3140583,84.589401,12.0005,81.278,12.0005C77.966507,12.0005,75.282104,9.3140583,75.282104,6.0002289C75.282104,2.6863899,77.966507,0,81.278,0C84.589401,0,87.273895,2.6863899,87.273895,6.0002289ZM7.582222,0.21143341C7.5680084,0.18397903,7.5394287,0.16667175,7.5082169,0.16667175L5.5154495,0.16667175C5.4832916,0.16667175,5.4540024,0.18497086,5.4402695,0.21371078L0.0079498291,11.5828C-0.0014572144,11.602499,-0.0025634766,11.625099,0.0048828125,11.645599C0.012329102,11.6661,0.027702332,11.682899,0.047637939,11.6922C0.058738708,11.6973,0.070861816,11.699999,0.083137512,11.699999L0.62075806,11.699999C0.62796021,11.699999,0.63512421,11.699099,0.64208221,11.6973L8.1111832,9.7375088C8.1324921,9.7319183,8.1506805,9.7181797,8.1617432,9.6993389C8.1728134,9.6804981,8.1758423,9.6580582,8.1701813,9.6369991C8.1690063,9.6326294,8.1674881,9.6284199,8.1656113,9.6242981L7.4187012,7.99119C7.4019089,7.9544697,7.3606415,7.9351997,7.3212738,7.9456882L3.50354,8.9630585L6.1710281,2.8227787Q6.2961807,2.5711384,6.3598099,2.4352283Q6.4014282,2.3463593,6.4573975,2.22225Q6.5116196,2.3432198,6.5559006,2.4339294Q6.6242371,2.5738583,6.7486801,2.8187084L11.038498,11.653399C11.052299,11.681898,11.081497,11.699999,11.113403,11.699999L13.396004,11.699999C13.442001,11.699999,13.479202,11.663198,13.479202,11.617899C13.479202,11.604898,13.476097,11.591999,13.4701,11.580399L7.582222,0.21143341ZM39.183197,0.17461014C39.137299,0.17461014,39.100098,0.21138954,39.100098,0.25675964L39.100098,11.617899C39.100098,11.663198,39.137299,11.699999,39.183197,11.699999L41.134697,11.699999C41.180603,11.699999,41.217796,11.663198,41.217796,11.617899L41.217201,1.9226589L45.509201,1.9226589Q46.455597,1.9226685,46.953094,2.4442883Q47.452805,2.9679794,47.452606,3.8520889Q47.452606,4.720499,46.954895,5.2676697Q46.460701,5.8110294,45.509201,5.8110294L42.448502,5.8110085C42.402603,5.8110085,42.365402,5.8477898,42.365402,5.8931599L42.365402,6.2279186C42.365402,6.2488689,42.373497,6.2690392,42.388,6.2842789L47.533401,11.674198C47.549103,11.690699,47.570999,11.699999,47.593903,11.699999L50.000595,11.699999C50.046494,11.699999,50.083694,11.663198,50.083694,11.617899C50.083694,11.5966,50.075394,11.576099,50.060394,11.560799L46.121399,7.5269184Q47.552505,7.4324398,48.537704,6.4835796Q49.587799,5.4720898,49.587799,3.7933292Q49.587799,2.1161289,48.572403,1.1448193Q47.558197,0.17461014,45.726402,0.17461014L39.183197,0.17461014ZM26.054199,0.17461014C26.008301,0.17461014,25.9711,0.21138954,25.9711,0.25675964L25.9711,1.912569C25.9711,1.9579391,26.008301,1.9947186,26.054199,1.9947186L30.682602,1.9947186L30.682602,11.617899C30.682602,11.663198,30.719803,11.699999,30.765701,11.699999L32.729599,11.699999C32.775497,11.699999,32.812698,11.663198,32.812698,11.617899L32.812698,1.9947186L37.440804,1.9947186C37.486702,1.9947186,37.523903,1.9579391,37.523903,1.912569L37.523903,0.25675964C37.523903,0.21138954,37.486702,0.17461014,37.440804,0.17461014L26.054199,0.17461014ZM73.253296,4.8234081Q73.728699,4.1324291,73.728699,3.1177788Q73.728607,1.6379585,72.742096,0.90219879Q71.766495,0.17457771,70.091705,0.17463112L64.156006,0.17463112C64.110107,0.17463112,64.0728,0.2113781,64.0728,0.2567482L64.0728,11.617899C64.0728,11.663198,64.110107,11.699999,64.156006,11.699999L70.317993,11.699999Q71.983704,11.699999,73.104996,10.8699Q74.237503,10.031599,74.237503,8.4142799Q74.237396,7.1321087,73.610596,6.4356098Q73.0672,5.8316994,72.351501,5.6317081Q72.856201,5.4005089,73.253296,4.8234081ZM89.4953,0.36579704L99.410995,11.6992C99.424805,11.7139,99.432297,11.732498,99.432297,11.751699C99.432297,11.7969,99.391205,11.833599,99.3405,11.833599L96.843994,11.833698C96.817001,11.833698,96.791397,11.823099,96.774002,11.804798L93.072296,7.5746498L89.494095,11.8025C89.476593,11.8221,89.450104,11.8335,89.422104,11.8335L86.866104,11.833799C86.845306,11.833799,86.824997,11.827299,86.808701,11.815699C86.789703,11.802099,86.777496,11.782299,86.774796,11.760698C86.772095,11.7391,86.779205,11.717499,86.794403,11.700499L91.546097,6.1871986L86.793304,0.46519279C86.780899,0.45085335,86.7742,0.43329239,86.7742,0.41519928C86.7742,0.36992836,86.815399,0.33334541,86.866104,0.33334541L89.422104,0.33334541C89.450806,0.33334541,89.477905,0.34539223,89.4953,0.36579704ZM94.888306,5.2222691L93.748795,3.9006996C93.712402,3.858469,93.712906,3.7987785,93.750107,3.7570782L96.772797,0.36353302C96.790207,0.34440994,96.816299,0.33334541,96.843994,0.33334541L99.3405,0.33334541C99.361404,0.33334541,99.381607,0.33970642,99.397903,0.3513813C99.416901,0.36498833,99.429092,0.38477325,99.431702,0.40638542C99.434402,0.42799377,99.427307,0.44966125,99.412094,0.46661568L95.083496,5.2246189C95.032394,5.2807484,94.937805,5.2796097,94.888306,5.2222691ZM71.195694,2.2374496Q71.645996,2.6258698,71.645996,3.4025383Q71.645996,4.1764698,71.193298,4.5908985Q70.7379,4.9243088,69.863998,4.9243183L66.169403,4.9243183L66.169403,1.84478L69.8647,1.84478Q70.740295,1.84478,71.195694,2.2374496ZM60.791901,6.0002289C60.791901,8.2094498,59.002304,10.000399,56.794601,10.000399C54.587006,10.000399,52.797394,8.2094498,52.797394,6.0002289C52.797394,3.7909985,54.587006,2.0000782,56.794601,2.0000782C59.002304,2.0000782,60.791901,3.7909985,60.791901,6.0002289ZM85.275299,6.0002289C85.275299,8.2094498,83.485596,10.000399,81.278,10.000399C79.070404,10.000399,77.280701,8.2094498,77.280701,6.0002289C77.280701,3.7909985,79.070404,2.0000782,81.278,2.0000782C83.485596,2.0000782,85.275299,3.7909985,85.275299,6.0002289ZM71.537903,6.9309082Q72.094894,7.3578587,72.094894,8.2130985Q72.094894,9.18153,71.537292,9.6173687Q70.970795,10.059999,70.082794,10.059999L66.169403,10.059999L66.169403,6.5798988L70.082794,6.5798988Q70.971298,6.5798988,71.537903,6.9309082Z" fill-rule="evenodd" fill="#000000" fill-opacity="1" style="mix-blend-mode:passthrough"/></svg>