<svg xmlns="http://www.w3.org/2000/svg" xmlns:xlink="http://www.w3.org/1999/xlink" fill="none" version="1.1" width="271" height="88" viewBox="0 0 271 88"><g><path d="M3.9105,20.194031L16.551563,20.194031Q22.701937,20.194031,26.008125,23.083595Q29.314312,25.973156,29.314312,31.519218L29.314312,32.964001Q29.314312,37.018875,27.709688,39.562969Q26.106094,42.106033,23.1,43.062L23.1,43.194Q26.924906,44.054062,28.805906,46.662094Q30.687937,49.269096,30.687937,53.717907L30.687937,55.533936Q30.687937,59.986874,29.184376,62.990906Q27.680813,65.993904,24.72525,67.497467Q21.769688,69,17.347687,69L3.9105,69L3.9105,20.194031ZM16.683563,61.481155Q20.017593,61.481155,21.273657,60.075562Q22.53075,58.669968,22.53075,55.098751L22.53075,54.074718Q22.53075,50.470501,21.257156,49.048409Q19.983562,47.625282,16.6485,47.625282L10.7745,47.625282L10.7745,40.106438L16.180313,40.106438Q18.113907,40.106438,19.193624,39.534096Q20.274374,38.960716,20.73225,37.732498Q21.191156,36.50325,21.191156,34.337624L21.191156,33.479626Q21.191156,30.297188,20.095968,29.005032Q19.000782,27.712875,16.182375,27.712875L11.8305,27.712875L11.8305,61.481155L16.683563,61.481155ZM44.985188,20.194031L53.870438,20.194031L66.135094,69L58.219219,69L49.576313,31.995655L49.246315,31.995655L40.570404,69L32.687531,69L44.985188,20.194031ZM59.214375,56.154751L38.434689,56.154751L40.435314,48.838032L57.082779,48.838032L59.214375,56.154751ZM70.240501,20.194031L78.965912,20.194031L89.738342,52.641281L90.00235,52.641281L90.00235,20.194031L97.485092,20.194031L97.485092,69L88.958725,69L78.021286,37.368469L77.723251,37.368469L77.723251,69L70.240501,69L70.240501,20.194031ZM105.28651,20.194031L117.86879,20.194031Q122.69917,20.194031,125.97545,21.819283Q129.25276,23.443501,131.00589,26.819813Q132.76004,30.195095,132.99207,35.479218Q133.19006,39.798096,133.19006,44.356216Q133.19006,48.914345,132.99207,53.233219Q132.76004,58.549313,130.99042,62.053501Q129.22079,65.557686,125.94347,67.278847Q122.66719,69,117.86879,69L105.28651,69L105.28651,20.194031ZM117.52951,61.378033Q119.96635,61.378033,121.4957,60.590157Q123.02607,59.80228,123.79745,58.114124Q124.56882,56.425968,124.66679,53.63953Q124.86479,49.1175,124.86479,44.356216Q124.86479,39.593906,124.66679,35.072906Q124.56882,32.286469,123.79745,30.726189Q123.02607,29.165905,121.51219,28.49147Q119.99832,27.816002,117.52951,27.816002L113.47772,27.816002L113.47772,61.378033L117.52951,61.378033ZM139.87051,20.194031L152.51157,20.194031Q158.66194,20.194031,161.96814,23.083595Q165.27432,25.973156,165.27432,31.519218L165.27432,32.964001Q165.27432,37.018875,163.66969,39.562969Q162.0661,42.106033,159.06001,43.062L159.06001,43.194Q162.88492,44.054062,164.76591,46.662094Q166.64795,49.269096,166.64795,53.717907L166.64795,55.533936Q166.64795,59.986874,165.14438,62.990906Q163.64082,65.993904,160.68526,67.497467Q157.72969,69,153.30769,69L139.87051,69L139.87051,20.194031ZM152.64357,61.481155Q155.9776,61.481155,157.23366,60.075562Q158.49075,58.669968,158.49075,55.098751L158.49075,54.074718Q158.49075,50.470501,157.21716,49.048409Q155.94357,47.625282,152.60851,47.625282L146.73451,47.625282L146.73451,40.106438L152.14032,40.106438Q154.07391,40.106438,155.15363,39.534096Q156.23438,38.960716,156.69226,37.732498Q157.15117,36.50325,157.15117,34.337624L157.15117,33.479626Q157.15117,30.297188,156.05597,29.005032Q154.96078,27.712875,152.14238,27.712875L147.79051,27.712875L147.79051,61.481155L152.64357,61.481155ZM186.7305,62.236031Q189.58191,62.236031,191.0071,60.611813Q192.43332,58.987595,192.43332,55.407093L192.43332,20.194031L200.6235,20.194031L200.6235,54.108749Q200.6235,59.369156,199.03641,62.876438Q197.44933,66.38269,194.35558,68.136841Q191.26285,69.889969,186.7305,69.889969Q182.23117,69.889969,179.13742,68.136841Q176.04469,66.38269,174.4576,62.876438Q172.87051,59.369156,172.87051,54.108749L172.87051,20.194031L181.06172,20.194031L181.06172,55.143093Q181.06172,58.823624,182.48691,60.530342Q183.91209,62.236031,186.7305,62.236031ZM226.26039,45.870094L236.32642,69L227.53914,69L219.1891,47.518032L226.26039,45.870094ZM212.69843,42.986717L220.06052,42.986717Q222.38805,42.986717,223.66576,42.231842Q224.94452,41.475937,225.41888,39.934219Q225.89326,38.392502,225.89326,35.736L225.89326,34.633595Q225.89326,32.077126,225.41888,30.601406Q224.94452,29.125687,223.66576,28.403812Q222.38805,27.680908,220.06052,27.680908L216.63573,27.680908L216.63573,69L208.44452,69L208.44452,20.194031L220.45961,20.194031Q225.25079,20.194031,228.25998,21.764626Q231.26917,23.33522,232.72426,26.490845Q234.18039,29.646469,234.18039,34.498501L234.18039,35.936062Q234.18039,40.788094,232.8243,43.942688Q231.46924,47.097282,228.57555,48.667877Q225.68289,50.238468,220.98761,50.238468L212.69843,50.238468L212.69843,42.986717ZM254.22479,26.892002Q252.38918,26.892002,251.20943,27.663376Q250.02966,28.43475,249.40782,30.12394Q248.78598,31.813126,248.65398,34.565533Q248.42195,39.087563,248.42195,44.581032Q248.42195,50.074501,248.65398,54.595501Q248.78598,57.41597,249.43979,59.087624Q250.09361,60.759281,251.40536,61.530655Q252.7171,62.302032,254.91882,62.302032Q256.62759,62.302032,257.95688,61.628624Q259.2872,60.955219,259.90802,59.772377L259.90802,49.14122L253.65555,49.14122L253.65555,41.824501L267.75995,41.824501L267.75995,62.576344Q266.1048,66.086716,262.79654,68.005875Q259.48932,69.924004,255.0168,69.924004Q250.32048,69.924004,247.14423,68.202843Q243.96799,66.481689,242.26436,62.977501Q240.56073,59.473312,240.3287,54.157219Q240.13071,49.838345,240.13071,44.581032Q240.13071,39.322685,240.3287,35.004845Q240.56073,29.720718,242.19836,26.21653Q243.83598,22.712345,246.84723,20.991188Q249.85849,19.270031,254.22479,19.270031Q261.61163,19.270031,264.71881,23.8395Q266.17285,25.923656,266.83286,29.014313Q267.49286,32.103939,267.49286,36.590908L259.54089,36.590908Q259.54089,31.492405,258.42612,29.192719Q257.31134,26.892002,254.22479,26.892002Z" fill="#262626" fill-opacity="1"/></g></svg>