<svg xmlns="http://www.w3.org/2000/svg" xmlns:xlink="http://www.w3.org/1999/xlink" fill="none" version="1.1" width="568" height="88" viewBox="0 0 568 88"><g><path d="M5.9760938,20.213627L38.857498,20.213627Q49.225689,20.213627,54.589218,23.367188Q59.952751,26.520752,59.952751,32.436001L59.952751,32.501999Q59.952751,36.226875,57.747936,39.040123Q55.543125,41.852345,51.64603,43.204315L51.64603,43.600311Q57.708748,44.685188,60.825188,47.619095Q63.941624,50.551971,63.941624,55.275093L63.941624,55.366875Q63.941624,59.816719,61.382061,62.866127Q58.822498,65.914497,53.804436,67.457253Q48.786373,69,41.46553,69L5.9760938,69L5.9760938,20.213627ZM41.562469,59.256752Q47.082748,59.256752,49.587654,57.995529Q52.093594,56.73328,52.093594,54.155155L52.093594,54.089157Q52.093594,51.536812,49.71656,50.274563Q47.339531,49.012314,42.063656,49.012314L14.649938,49.012314L14.649938,39.270096L39.756748,39.270096Q42.662811,39.270096,44.472656,38.786438Q46.283531,38.30278,47.187939,37.262253Q48.092342,36.220688,48.092342,34.606781L48.092342,34.540783Q48.092342,32.076096,45.971062,31.017002Q43.850811,29.956875,39.152439,29.956875L17.292,29.956875L17.292,59.256752L41.562469,59.256752ZM96.318748,20.213627L107.55833,20.213627L137.55121,69L124.48322,69L102.21028,32.22047L101.66681,32.22047L79.369118,69L66.392899,69L96.318748,20.213627ZM121.08627,56.985939L83.123901,56.985939L85.506088,47.362312L118.57312,47.362312L121.08627,56.985939ZM143.25609,20.213627L153.11278,20.213627L193.57077,53.869499L194.02969,53.869499L194.02969,20.213627L205.32394,20.213627L205.32394,69L195.78796,69L155.06287,35.277096L154.57199,35.277096L154.57199,69L143.25609,69L143.25609,20.213627ZM217.30809,20.213627L247.14009,20.213627Q257.89603,20.213627,265.32205,23.004189Q272.74811,25.79475,276.5462,31.245937Q280.3443,36.697124,280.3443,44.51194Q280.3443,44.51194,280.3443,44.545967Q280.3443,44.580002,280.3443,44.580002Q280.3443,52.462875,276.52042,57.907875Q272.69757,63.352875,265.22205,66.176437Q257.74649,69,246.91528,69L217.30809,69L217.30809,20.213627ZM246.83691,58.989655Q254.18559,58.989655,259.01184,57.433502Q263.8381,55.876312,266.24091,52.708313Q268.64474,49.540314,268.64474,44.581032Q268.64474,44.581032,268.64474,44.548031Q268.64474,44.514,268.64474,44.514Q268.64474,39.607315,266.2533,36.445499Q263.86285,33.283688,259.07373,31.754345Q254.28563,30.223969,246.97406,30.223969L228.62399,30.223969L228.62399,58.989655L246.83691,58.989655ZM289.6441,20.213627L322.52551,20.213627Q332.89368,20.213627,338.2572,23.367188Q343.62076,26.520752,343.62076,32.436001L343.62076,32.501999Q343.62076,36.226875,341.41592,39.040123Q339.21112,41.852345,335.31403,43.204315L335.31403,43.600311Q341.37674,44.685188,344.49319,47.619095Q347.60962,50.551971,347.60962,55.275093L347.60962,55.366875Q347.60962,59.816719,345.05005,62.866127Q342.49051,65.914497,337.47244,67.457253Q332.45438,69,325.13354,69L289.6441,69L289.6441,20.213627ZM325.23047,59.256752Q330.75073,59.256752,333.25565,57.995529Q335.7616,56.73328,335.7616,54.155155L335.7616,54.089157Q335.7616,51.536812,333.38455,50.274563Q331.00754,49.012314,325.73166,49.012314L298.31793,49.012314L298.31793,39.270096L323.42474,39.270096Q326.33081,39.270096,328.14066,38.786438Q329.95154,38.30278,330.85593,37.262253Q331.76035,36.220688,331.76035,34.606781L331.76035,34.540783Q331.76035,32.076096,329.63907,31.017002Q327.5188,29.956875,322.82043,29.956875L300.95999,29.956875L300.95999,59.256752L325.23047,59.256752ZM386.5589,59.686783Q395.82468,59.686783,400.55502,55.860844Q405.28641,52.034904,405.28641,44.711998L405.28641,20.213627L416.60229,20.213627L416.60229,44.926498Q416.60229,53.020782,413.20642,58.602936Q409.81049,64.184059,403.1084,67.027222Q396.40631,69.870377,386.5589,69.870377Q376.71048,69.870377,370.0022,67.027222Q363.29391,64.184059,359.89801,58.602936Q356.50211,53.020782,356.50211,44.926498L356.50211,20.213627L367.81799,20.213627L367.81799,44.497498Q367.81799,51.927658,372.55453,55.80722Q377.29208,59.686783,386.5589,59.686783ZM466.37354,45.202873L487.88849,69L474.18524,69L455.25769,47.537624L466.37354,45.202873ZM434.28516,42.332909L462.11548,42.332909Q466.02084,42.332909,468.4845,41.645065Q470.94919,40.957218,472.09283,39.601128Q473.23648,38.243999,473.23648,36.237186L473.23648,36.171188Q473.23648,34.164375,472.09283,32.802094Q470.94919,31.438782,468.4845,30.750938Q466.02084,30.063095,462.11548,30.063095L439.88998,30.063095L439.88998,69L428.5741,69L428.5741,20.213627L462.47437,20.213627Q469.75397,20.213627,474.73386,22.109062Q479.71481,24.004501,482.24445,27.584999Q484.77515,31.164471,484.77515,36.171188L484.77515,36.237186Q484.77515,41.243904,482.31046,44.818218Q479.8468,48.391502,474.99786,50.28075Q470.14996,52.169998,463.10962,52.169998L434.28516,52.169998L434.28516,42.332909ZM530.5575,29.473221Q522.34052,29.473221,516.48401,31.248001Q510.62756,33.022781,507.54102,36.361969Q504.45554,39.701157,504.45554,44.370659Q504.45554,44.370659,504.45554,44.403656Q504.45554,44.435623,504.45554,44.435623Q504.45554,49.182468,507.61526,52.626846Q510.77606,56.07122,516.69958,57.878998Q522.62305,59.686783,530.77197,59.686783Q536.80792,59.686783,541.84351,58.748344Q546.87909,57.808876,550.38635,56.061935L550.38635,49.931156L527.39362,49.931156L527.39362,40.880905L561.70227,40.880905L561.70227,61.840031Q556.72034,65.749496,548.85498,67.809937Q540.99066,69.870377,530.87927,69.870377Q519.01886,69.870377,510.4574,66.836441Q501.897,63.801468,497.32651,58.087311Q492.75598,52.372124,492.75598,44.435623Q492.75598,44.435623,492.75598,44.402626Q492.75598,44.369625,492.75598,44.369625Q492.75598,36.531094,497.2677,30.880875Q501.78046,25.229626,510.29858,22.259624Q518.81671,19.289627,530.66473,19.289627Q538.55072,19.289627,545.76843,20.684906Q550.53485,21.608906,554.44537,23.034096Q558.35583,24.459282,561,26.266033L554.25354,34.726406Q550.19043,32.291626,543.75647,30.882938Q537.32251,29.473221,530.5575,29.473221Z" fill="#262626" fill-opacity="1"/></g></svg>